<svg width="96" height="96" viewBox="0 0 96 96" fill="none" xmlns="http://www.w3.org/2000/svg">
  <rect width="96" height="96" rx="16" fill="#4A6FE9"/>
  <path d="M67.4 57.2C70.2 54.4 72 50.4 72 46C72 37.2 64.8 30 56 30H30V66H56C60.4 66 64.4 64.2 67.2 61.4C67.4 60 67.4 58.6 67.4 57.2Z" fill="#FFFFFF"/>
  <path d="M56 70H26V26H56C67 26 76 35 76 46C76 51.8 73.6 57 69.6 60.8C69.2 62.4 68.6 64 67.8 65.4C64.4 68.2 60.4 70 56 70Z" stroke="#FFFFFF" stroke-width="4" stroke-miterlimit="10" stroke-linecap="round" stroke-linejoin="round"/>
  <path d="M44 38V54L56 46L44 38Z" fill="#4A6FE9" stroke="#FFFFFF" stroke-width="4" stroke-miterlimit="10" stroke-linecap="round" stroke-linejoin="round"/>
  <path d="M84 67C84 76.4 76.4 84 67 84C57.6 84 50 76.4 50 67C50 57.6 57.6 50 67 50C76.4 50 84 57.6 84 67Z" fill="#FF7043" stroke="#FFFFFF" stroke-width="4" stroke-miterlimit="10" stroke-linecap="round" stroke-linejoin="round"/>
  <path d="M67 60V74" stroke="#FFFFFF" stroke-width="4" stroke-miterlimit="10" stroke-linecap="round" stroke-linejoin="round"/>
  <path d="M74 67H60" stroke="#FFFFFF" stroke-width="4" stroke-miterlimit="10" stroke-linecap="round" stroke-linejoin="round"/>
</svg>
