<svg width="48" height="48" viewBox="0 0 48 48" fill="none" xmlns="http://www.w3.org/2000/svg">
  <rect width="48" height="48" rx="8" fill="#4A6FE9"/>
  <path d="M33.7 28.6C35.1 27.2 36 25.2 36 23C36 18.6 32.4 15 28 15H15V33H28C30.2 33 32.2 32.1 33.6 30.7C33.7 30 33.7 29.3 33.7 28.6Z" fill="#FFFFFF"/>
  <path d="M28 35H13V13H28C33.5 13 38 17.5 38 23C38 25.9 36.8 28.5 34.8 30.4C34.6 31.2 34.3 32 33.9 32.7C32.2 34.1 30.2 35 28 35Z" stroke="#FFFFFF" stroke-width="2" stroke-miterlimit="10" stroke-linecap="round" stroke-linejoin="round"/>
  <path d="M22 19V27L28 23L22 19Z" fill="#4A6FE9" stroke="#FFFFFF" stroke-width="2" stroke-miterlimit="10" stroke-linecap="round" stroke-linejoin="round"/>
  <path d="M42 33.5C42 38.2 38.2 42 33.5 42C28.8 42 25 38.2 25 33.5C25 28.8 28.8 25 33.5 25C38.2 25 42 28.8 42 33.5Z" fill="#FF7043" stroke="#FFFFFF" stroke-width="2" stroke-miterlimit="10" stroke-linecap="round" stroke-linejoin="round"/>
  <path d="M33.5 30V37" stroke="#FFFFFF" stroke-width="2" stroke-miterlimit="10" stroke-linecap="round" stroke-linejoin="round"/>
  <path d="M37 33.5H30" stroke="#FFFFFF" stroke-width="2" stroke-miterlimit="10" stroke-linecap="round" stroke-linejoin="round"/>
</svg>
