<svg xmlns="http://www.w3.org/2000/svg" width="100" height="100" viewBox="0 0 100 100" fill="none">
  <rect width="100" height="100" rx="20" fill="#4A6FE9"/>
  <path d="M70.1517 50C70.1517 51.3807 69.0323 52.5 67.6517 52.5C66.271 52.5 65.1517 51.3807 65.1517 50C65.1517 48.6193 66.271 47.5 67.6517 47.5C69.0323 47.5 70.1517 48.6193 70.1517 50Z" fill="white"/>
  <path d="M55.1517 50C55.1517 51.3807 54.0323 52.5 52.6517 52.5C51.271 52.5 50.1517 51.3807 50.1517 50C50.1517 48.6193 51.271 47.5 52.6517 47.5C54.0323 47.5 55.1517 48.6193 55.1517 50Z" fill="white"/>
  <path d="M40.1517 50C40.1517 51.3807 39.0323 52.5 37.6517 52.5C36.271 52.5 35.1517 51.3807 35.1517 50C35.1517 48.6193 36.271 47.5 37.6517 47.5C39.0323 47.5 40.1517 48.6193 40.1517 50Z" fill="white"/>
  <path d="M75 30C75 27.2386 72.7614 25 70 25H30C27.2386 25 25 27.2386 25 30V60C25 62.7614 27.2386 65 30 65H36.4645C37.1275 65 37.7635 65.2634 38.2322 65.7322L48.9645 76.4645C50.9171 78.4171 54.0829 78.4171 56.0355 76.4645L66.7678 65.7322C67.2365 65.2634 67.8725 65 68.5355 65H70C72.7614 65 75 62.7614 75 60V30Z" stroke="white" stroke-width="5" stroke-linecap="round" stroke-linejoin="round"/>
</svg>
