<svg xmlns="http://www.w3.org/2000/svg" width="40" height="40" viewBox="0 0 40 40" fill="none">
  <rect width="40" height="40" rx="8" fill="#4A6FE9"/>
  <path d="M28.0607 20C28.0607 20.5523 27.6129 21 27.0607 21C26.5084 21 26.0607 20.5523 26.0607 20C26.0607 19.4477 26.5084 19 27.0607 19C27.6129 19 28.0607 19.4477 28.0607 20Z" fill="white"/>
  <path d="M22.0607 20C22.0607 20.5523 21.6129 21 21.0607 21C20.5084 21 20.0607 20.5523 20.0607 20C20.0607 19.4477 20.5084 19 21.0607 19C21.6129 19 22.0607 19.4477 22.0607 20Z" fill="white"/>
  <path d="M16.0607 20C16.0607 20.5523 15.6129 21 15.0607 21C14.5084 21 14.0607 20.5523 14.0607 20C14.0607 19.4477 14.5084 19 15.0607 19C15.6129 19 16.0607 19.4477 16.0607 20Z" fill="white"/>
  <path d="M30 12C30 10.8954 29.1046 10 28 10H12C10.8954 10 10 10.8954 10 12V24C10 25.1046 10.8954 26 12 26H14.5858C14.851 26 15.1054 26.1054 15.2929 26.2929L19.5858 30.5858C20.3668 31.3668 21.6332 31.3668 22.4142 30.5858L26.7071 26.2929C26.8946 26.1054 27.149 26 27.4142 26H28C29.1046 26 30 25.1046 30 24V12Z" stroke="white" stroke-width="2" stroke-linecap="round" stroke-linejoin="round"/>
</svg>
