<?xml version="1.0" encoding="UTF-8"?>
<svg width="400" height="400" viewBox="0 0 400 400" fill="none" xmlns="http://www.w3.org/2000/svg">
<rect width="400" height="400" rx="200" fill="#2E8AE6" fill-opacity="0.1"/>
<path d="M200 65C125.1 65 65 125.1 65 200C65 274.9 125.1 335 200 335C274.9 335 335 274.9 335 200C335 125.1 274.9 65 200 65ZM271.9 121.4L257.3 136.1C254.9 138.5 251 138.5 248.6 136.1C246.2 133.7 246.2 129.8 248.6 127.4L263.3 112.8C265.7 110.4 269.6 110.4 272 112.8C274.4 115.2 274.4 119.1 271.9 121.4ZM272 287.2C269.6 289.6 265.7 289.6 263.3 287.2L248.6 272.6C246.2 270.2 246.2 266.3 248.6 263.9C251 261.5 254.9 261.5 257.3 263.9L272 278.6C274.3 280.9 274.3 284.8 272 287.2ZM293.8 200C293.8 203.5 290.9 206.3 287.4 206.3H266.2C262.7 206.3 259.9 203.4 259.9 200C259.9 196.5 262.8 193.7 266.2 193.7H287.4C290.9 193.7 293.8 196.5 293.8 200ZM200 259.9C196.5 259.9 193.7 262.8 193.7 266.2V287.4C193.7 290.9 196.6 293.8 200 293.8C203.5 293.8 206.3 290.9 206.3 287.4V266.2C206.3 262.8 203.5 259.9 200 259.9ZM200 106.2C203.5 106.2 206.3 109.1 206.3 112.6V133.8C206.3 137.3 203.4 140.1 200 140.1C196.5 140.1 193.7 137.2 193.7 133.8V112.6C193.7 109.1 196.6 106.2 200 106.2ZM151.4 127.5C153.8 129.9 153.8 133.8 151.4 136.2C149 138.6 145.1 138.6 142.7 136.2L128 121.5C125.6 119.1 125.6 115.2 128 112.8C130.4 110.4 134.3 110.4 136.7 112.8L151.4 127.5ZM128 287.2C125.6 284.8 125.6 280.9 128 278.5L142.7 263.8C145.1 261.4 149 261.4 151.4 263.8C153.8 266.2 153.8 270.1 151.4 272.5L136.7 287.2C134.3 289.6 130.4 289.6 128 287.2ZM133.8 200C133.8 196.5 136.7 193.7 140.1 193.7H259.9C263.4 193.7 266.2 196.6 266.2 200C266.2 203.5 263.3 206.3 259.9 206.3H140.1C136.6 206.3 133.8 203.4 133.8 200ZM140.1 153.6C136.6 153.6 133.8 150.7 133.8 147.3C133.8 143.8 136.7 141 140.1 141H259.9C263.4 141 266.2 143.9 266.2 147.3C266.2 150.8 263.3 153.6 259.9 153.6H140.1ZM140.1 259.8C136.6 259.8 133.8 256.9 133.8 253.5C133.8 250 136.7 247.2 140.1 247.2H259.9C263.4 247.2 266.2 250.1 266.2 253.5C266.2 257 263.3 259.8 259.9 259.8H140.1Z" fill="#2E8AE6"/>
</svg>
