<?xml version="1.0" encoding="UTF-8"?>
<svg width="400" height="400" viewBox="0 0 400 400" fill="none" xmlns="http://www.w3.org/2000/svg">
<path d="M200 0C89.7 0 0 89.7 0 200C0 310.3 89.7 400 200 400C310.3 400 400 310.3 400 200C400 89.7 310.3 0 200 0ZM341.9 178.1L296.9 223.1C293.4 226.6 287.5 223.9 287.5 218.8V193.8C287.5 191 285.2 188.8 282.5 188.8H257.5C252.4 188.8 249.7 182.8 253.1 179.4L298.1 134.4C301.9 130.6 308.1 130.6 311.9 134.4L341.9 164.4C345.8 168.1 345.8 174.4 341.9 178.1ZM271.2 271.2C274.1 268.3 274.1 263.6 271.2 260.6L246.2 235.6C241.7 231.1 234.2 234.4 234.2 240.6V259.4C234.2 262.1 232 264.4 229.2 264.4H210.5C204.3 264.4 201 271.9 205.5 276.3L230.5 301.3C233.4 304.2 238.1 304.2 241.1 301.3L271.2 271.2ZM169.5 158.8C169.5 165 163.1 168.2 158.7 163.8L133.7 138.8C130.8 135.9 126.1 135.9 123.1 138.8L93.1 168.8C90.2 171.7 90.2 176.4 93.1 179.4L123.1 209.4C126.1 212.3 130.8 212.3 133.7 209.4L158.7 184.4C163.1 179.9 169.5 183.2 169.5 189.4V265.6C169.5 268.4 171.8 270.6 174.5 270.6H199.5C202.3 270.6 204.5 268.4 204.5 265.6V153.8C204.5 151 202.3 148.8 199.5 148.8H174.5C171.8 148.8 169.5 151 169.5 153.8V158.8Z" fill="#8E44EF"/>
</svg>
