<?xml version="1.0" encoding="UTF-8"?>
<svg width="400" height="400" viewBox="0 0 400 400" fill="none" xmlns="http://www.w3.org/2000/svg">
<rect width="400" height="400" rx="200" fill="#FF6D5A" fill-opacity="0.1"/>
<path d="M319.5 160.4C308.4 139.9 286.2 127 260.9 127C255 127 249.2 127.8 243.7 129.3V129.2C242.7 112.9 236.1 97.7 224.8 86.3C211.1 72.6 192.2 65 172.2 65C152.2 65 133.3 72.6 119.6 86.3C105.9 99.9 98.3 118.8 98.3 138.8C98.3 142.5 98.6 146.2 99.1 149.7C83.5 157.4 71.8 170.4 65.7 186.9C61.3 198.8 60.2 211.6 62.6 224C65 236.3 70.7 247.7 79.1 257C87.5 266.2 98.2 272.9 110.1 276.6C122 280.2 134.7 280.7 146.8 277.8C158.9 275 170 269 178.9 260.1L179 260.2C184.1 266.7 190.3 272.2 197.5 276.2C212.6 284.9 230 287.5 246.7 283.4C263.3 279.4 277.6 269.1 286.6 254.1C297.6 235.5 297.8 212.5 287.2 193.8L287.3 193.7C286.8 192.9 286.4 192.1 285.9 191.4C300.7 185.9 312.1 175.5 319.5 160.4Z" fill="#FF6D5A"/>
<path d="M277.5 191.3V262.9H258.3V191.3H277.5Z" fill="white"/>
<path d="M241.7 191.3V262.9H224.2L196.7 220.4V262.9H177.5V191.3H195.8L222.5 233.8V191.3H241.7Z" fill="white"/>
<path d="M156.7 191.3V210.4H124.2V218.8H147.5V236.2H124.2V243.8H156.7V262.9H105V191.3H156.7Z" fill="white"/>
<path d="M277.5 158.7C268.3 158.7 260.8 151.2 260.8 142C260.8 132.9 268.3 125.4 277.5 125.4C286.7 125.4 294.2 132.9 294.2 142C294.2 151.2 286.7 158.7 277.5 158.7Z" fill="white"/>
</svg>
