<?xml version="1.0" encoding="UTF-8"?>
<svg width="400" height="400" viewBox="0 0 400 400" fill="none" xmlns="http://www.w3.org/2000/svg">
<rect width="400" height="400" rx="200" fill="#FF4A00" fill-opacity="0.1"/>
<path d="M320 140H80V260H320V140Z" fill="#FF4A00"/>
<path d="M141.1 200C141.1 207.8 140.5 215.1 139.2 222C137.9 228.9 136.4 234.9 134.7 240.1C133 245.3 131.1 249.6 129.2 253.2C127.2 256.7 125.3 258.5 123.6 258.5C122.2 258.5 120.9 257.5 119.7 255.6C118.5 253.7 117.9 250.7 117.9 246.7C117.9 242.4 119.3 236.8 122.2 229.7C125 222.7 128.3 214.8 132 206.1C127.4 200.3 123.6 195.4 120.7 191.5C117.9 187.5 115.7 184.1 114.1 181.3C112.6 178.5 111.6 176.1 111 174.2C110.5 172.3 110.2 170.6 110.2 169.1C110.2 166.2 110.6 164.1 111.4 162.6C112.2 161.2 113.3 160.4 114.8 160.4C116.4 160.4 118.4 161.3 120.7 163C123 164.7 125.6 167.2 128.6 170.3C131.5 173.5 134.6 177.3 137.9 181.8C141.2 186.3 144.6 191.2 148.1 196.5C148.5 192.7 148.9 189.1 149.5 185.9C150 182.7 150.7 179.7 151.5 177C152.3 174.3 153.2 172.1 154.3 170.3C155.3 168.6 156.5 167.7 157.9 167.7C159.8 167.7 161.3 168.7 162.3 170.7C163.2 172.7 163.7 175.5 163.7 179.2C163.7 182.9 163.1 186.8 161.9 191C160.8 195.2 159.2 200.3 157.2 206.3C161.1 211.1 165 215.6 168.8 219.9C172.6 224.2 176.2 227.9 179.5 231.1C182.8 234.3 185.7 236.8 188.3 238.7C190.9 240.6 193.2 241.5 195.1 241.5C196.9 241.5 198.2 240.9 199.1 239.8C200 238.7 200.4 237.1 200.4 235.1C200.4 231.3 199.3 227.3 197 222.9C194.8 218.5 191.8 213.9 188.1 209.2L200.4 200C204 204.7 206.7 209.4 208.6 214.2C210.5 219 211.4 223.6 211.4 227.9C211.4 233.1 210.1 237.1 207.5 240.1C204.9 243.1 200.9 244.6 195.7 244.6C192.3 244.6 188.7 243.7 184.9 241.8C181.1 239.9 177.2 237.1 173.1 233.4C169 229.7 164.9 225.2 160.7 219.9C156.5 214.6 152.5 208.8 148.5 202.4C147.8 203.7 147.1 205.3 146.5 207.1C145.9 208.9 145.3 210.8 144.8 212.7C144.3 214.6 143.9 216.5 143.6 218.4C143.4 220.3 143.2 221.9 143.2 223.2C143.2 225.5 143.3 227.7 143.6 229.7C143.9 231.7 144.3 233.5 144.9 235.1C145.5 236.7 146.2 238 147 239C147.9 240 149 240.5 150.3 240.5C152.7 240.5 155.4 239.2 158.3 236.7C161.2 234.2 164.7 230.4 168.8 225.5L178.4 235.1C173.5 241.3 168.5 246.3 163.2 250.1C158 253.9 152.8 255.7 147.6 255.7C143.8 255.7 140.8 254.9 138.3 253.2C135.9 251.5 133.9 249.2 132.5 246.4C131.1 243.6 130.1 240.4 129.5 236.8C141.1 211.4 141.1 204.9 141.1 200Z" fill="white"/>
<path d="M278.4 214.6C277 222.5 275.2 229.5 273 235.6C270.8 241.7 268.3 246.8 265.4 250.8C262.6 254.8 259.6 257.9 256.4 259.9C253.3 262 250.2 263 247.1 263C244.4 263 242.1 262.3 240 260.9C237.9 259.5 236.1 257.5 234.5 254.9C232.9 252.3 231.5 249.2 230.4 245.5C229.3 241.8 228.5 237.7 228 233.2C227.3 240.1 226.1 246 224.5 250.8C222.9 255.6 221 259.3 219 262.1C217 264.9 214.9 266.8 212.7 267.8C210.6 268.9 208.5 269.4 206.5 269.4C204.5 269.4 202.8 269 201.5 268.1C200.2 267.3 199.1 266.1 198.3 264.5C197.6 262.9 197 261 196.6 258.9C196.3 256.8 196.1 254.5 196.1 252.1C196.1 249 196.4 245.4 197 241.2C197.6 237 198.5 232.7 199.6 228.2C200.7 223.7 202 219.1 203.5 214.6C205 210 206.7 205.7 208.5 201.7C207.8 201.3 207.1 201 206.5 200.8C205.9 200.6 205.3 200.5 204.8 200.5C201.7 200.5 198.9 201.9 196.3 204.8C193.7 207.7 191.2 211.8 188.8 217.1L181.9 206C185 200.5 188.1 196.2 191.2 193.1C194.3 190 197.5 187.9 200.5 186.8C203.6 185.7 206.6 185.2 209.6 185.2C210.9 185.2 212 185.3 213 185.6C213.9 185.9 214.9 186.3 215.8 186.9C217.4 184.1 219.2 181.9 221.4 180.2C223.5 178.5 226.1 177.7 229.1 177.7C231.1 177.7 233.2 178.3 235.3 179.4C237.4 180.5 239.2 182.7 240.8 185.9C241.9 183.1 243.3 181 244.9 179.5C246.5 178 248.5 177.2 250.8 177.2C254.2 177.2 256.6 178.7 258.1 181.8C259.6 184.9 260.4 189.5 260.4 195.6C260.4 197 260.3 198.5 260.2 199.9C260.1 201.3 259.9 202.8 259.7 204.4C259.5 206 259.3 207.6 259 209.2C258.7 210.8 258.4 212.6 258 214.6H278.4ZM234.7 214.6C236.6 209.8 238.2 205.7 239.6 202.4C241 199.1 242.3 196.5 243.4 194.5C244.5 192.5 245.4 191.1 246.1 190.2C246.8 189.3 247.5 188.9 248.1 188.9C248.9 188.9 249.5 189.5 249.9 190.7C250.3 191.9 250.5 193.9 250.5 196.5C250.5 198.9 250.2 201.7 249.6 204.8C249.1 207.9 248.3 211.2 247.4 214.6H234.7ZM221.5 214.6C224 208.3 226.1 203.3 227.7 199.7C229.3 196.1 230.2 194.3 230.6 194.3C231.2 194.3 231.6 194.9 231.9 196.1C232.2 197.3 232.3 199.3 232.3 201.9C232.3 203.1 232.2 204.4 232.1 206C232 207.6 231.8 209.1 231.5 210.6C231.3 212.1 231 213.5 230.7 214.6H221.5ZM216.7 251.1C216.8 245.9 217.3 240.5 218.3 235C219.3 229.5 220.6 224.2 222.3 219C221.6 219.8 220.9 221.1 220.2 222.9C219.5 224.7 218.7 227 217.9 229.7C217.1 232.4 216.3 235.5 215.5 238.9C214.7 242.3 213.8 245.9 213 249.6C212.2 253.3 211.5 257.1 210.8 260.9C210.1 264.7 209.4 268.3 208.8 271.7C211.1 271.7 213.1 270 214.7 266.6C216.3 263.2 216.6 258.1 216.7 251.1ZM239 241.5C241.4 241.5 243.6 240.2 245.7 237.5C247.8 234.8 249.8 231.1 251.7 226.3C252.5 224.1 253.2 221.5 253.8 218.6C254.4 215.7 255 212.7 255.5 209.7C256 206.7 256.4 203.8 256.8 201.1C257.2 198.3 257.6 195.9 257.9 193.8C255.9 193.8 253.5 196.1 250.6 200.8C247.7 205.5 244.4 212.3 240.6 221.3C239.6 223.7 238.6 226.1 237.7 228.7C236.8 231.3 236 233.8 235.3 236.2C234.7 238.6 234.2 240.8 233.8 242.8C233.4 244.8 233.2 246.4 233.2 247.7C233.2 249.7 233.6 251.1 234.4 252C235.2 252.9 236.7 253.3 239 253.3V241.5Z" fill="white"/>
</svg>
